<?xml version="1.0" standalone="no"?>
<!DOCTYPE svg PUBLIC "-//W3C//DTD SVG 1.1//EN" "http://www.w3.org/Graphics/SVG/1.1/DTD/svg11.dtd">
<!--Generator: Xara Designer (www.xara.com), SVG filter version: 6.3.0.4-->
<svg stroke-width="0.501" stroke-linejoin="bevel" fill-rule="evenodd" xmlns:xlink="http://www.w3.org/1999/xlink" xmlns="http://www.w3.org/2000/svg" version="1.1" overflow="visible" width="245.05pt" height="245.05pt" viewBox="0 0 245.05 245.05">
 <defs>
	</defs>
 <g id="Document" fill="none" stroke="black" font-family="Times New Roman" font-size="16" transform="scale(1 -1)">
  <g id="Spread" transform="translate(0 -245.05)">
   <g id="Layer 1">
    <g id="Group" fill="#64bdab" fill-rule="evenodd" stroke-linejoin="miter" stroke="none" stroke-width="0.479" stroke-miterlimit="79.8403193612775">
     <path d="M 222.284,174.435 C 221.066,176.737 218.219,177.624 215.908,176.422 C 213.599,175.219 212.692,172.378 213.879,170.06 C 234.751,130.22 227.228,81.429 195.324,49.727 C 155.189,9.596 89.878,9.583 49.726,49.731 C 48.371,51.086 46.333,51.491 44.563,50.757 C 42.793,50.023 41.64,48.294 41.641,46.378 L 41.641,19.145 C 41.641,16.529 43.762,14.408 46.378,14.408 C 48.994,14.408 51.114,16.529 51.114,19.145 L 51.114,35.681 C 92.386,1.76 151.827,1.559 193.327,35.2 C 234.827,68.841 246.93,127.037 222.284,174.435 Z" marker-start="none" marker-end="none"/>
     <path d="M 49.726,195.32 C 89.873,235.464 155.185,235.46 195.324,195.325 C 196.677,193.968 198.716,193.561 200.486,194.294 C 202.257,195.028 203.411,196.756 203.409,198.673 L 203.409,225.906 C 203.409,228.522 201.288,230.643 198.672,230.643 C 196.056,230.643 193.936,228.522 193.936,225.906 L 193.936,209.37 C 149.817,245.698 84.262,243.254 43.029,202.021 C 8.186,167.404 -0.029,114.122 22.766,70.617 C 23.983,68.314 26.831,67.426 29.141,68.629 C 31.452,69.831 32.358,72.673 31.17,74.991 C 10.298,114.83 17.822,163.62 49.726,195.32 Z" marker-start="none" marker-end="none"/>
     <path d="M 60.497,123.216 L 60.497,70.836 C 60.518,63.708 66.291,57.934 73.419,57.913 L 171.63,57.913 C 178.759,57.934 184.533,63.707 184.553,70.836 L 184.553,123.216 C 184.532,130.344 178.759,136.118 171.63,136.138 L 73.419,136.138 C 66.291,136.117 60.518,130.344 60.497,123.216 Z M 156.985,107.146 C 162.575,107.146 167.106,102.615 167.106,97.025 C 167.106,91.436 162.575,86.904 156.985,86.904 C 151.395,86.904 146.864,91.436 146.864,97.025 C 146.869,102.613 151.398,107.141 156.985,107.146 Z M 122.525,107.146 C 128.115,107.146 132.646,102.615 132.646,97.025 C 132.646,91.436 128.114,86.904 122.525,86.904 C 116.935,86.904 112.404,91.436 112.404,97.025 C 112.409,102.613 116.937,107.141 122.525,107.146 Z M 88.065,107.146 C 93.654,107.146 98.186,102.615 98.186,97.025 C 98.186,91.436 93.654,86.904 88.065,86.904 C 82.475,86.904 77.944,91.436 77.944,97.025 C 77.949,102.613 82.477,107.141 88.065,107.146 Z" marker-start="none" marker-end="none"/>
     <path d="M 164.477,145.614 L 164.477,162.846 C 164.477,186.015 145.694,204.798 122.525,204.798 C 99.355,204.798 80.573,186.015 80.573,162.846 L 80.573,145.614 L 90.046,145.614 L 90.046,162.846 C 90.046,180.783 104.587,195.325 122.525,195.325 C 140.463,195.325 155.004,180.783 155.004,162.846 L 155.004,145.614 Z" marker-start="none" marker-end="none"/>
    </g>
   </g>
  </g>
 </g>
</svg>
